<mxfile host="Electron" agent="Mozilla/5.0 (Windows NT 10.0; Win64; x64) AppleWebKit/537.36 (KHTML, like Gecko) draw.io/24.7.8 Chrome/128.0.6613.36 Electron/32.0.1 Safari/537.36" version="24.7.8">
  <diagram name="Page-1" id="hkan6USc4auys_YIJUA5">
    <mxGraphModel dx="1434" dy="836" grid="1" gridSize="10" guides="1" tooltips="1" connect="1" arrows="1" fold="1" page="1" pageScale="1" pageWidth="1100" pageHeight="850" math="0" shadow="0">
      <root>
        <mxCell id="0" />
        <mxCell id="1" parent="0" />
        <mxCell id="7MOs0mlEQtgDmpYlOtF1-1" value="Slave&lt;div&gt;SoC&lt;/div&gt;" style="rounded=0;whiteSpace=wrap;html=1;" parent="1" vertex="1">
          <mxGeometry x="170" y="70" width="110" height="240" as="geometry" />
        </mxCell>
        <mxCell id="7MOs0mlEQtgDmpYlOtF1-2" value="P&lt;span style=&quot;font-size: 10px;&quot;&gt;&lt;sub&gt;0,2&lt;/sub&gt;&lt;/span&gt;" style="text;html=1;align=center;verticalAlign=middle;resizable=1;points=[];autosize=1;strokeColor=none;fillColor=none;" parent="1" vertex="1">
          <mxGeometry x="245" y="91.5" width="40" height="17" as="geometry" />
        </mxCell>
        <mxCell id="7MOs0mlEQtgDmpYlOtF1-3" value="P&lt;span style=&quot;font-size: 10px;&quot;&gt;&lt;sub&gt;0,4&lt;/sub&gt;&lt;/span&gt;" style="text;html=1;align=center;verticalAlign=middle;resizable=1;points=[];autosize=1;strokeColor=none;fillColor=none;" parent="1" vertex="1">
          <mxGeometry x="245" y="180.5" width="40" height="30" as="geometry" />
        </mxCell>
        <mxCell id="7MOs0mlEQtgDmpYlOtF1-4" value="M" style="dashed=0;outlineConnect=0;align=center;html=1;shape=mxgraph.pid.engines.electric_motor_(dc);fontSize=22;" parent="1" vertex="1">
          <mxGeometry x="441" y="165" width="40" height="40" as="geometry" />
        </mxCell>
        <mxCell id="7MOs0mlEQtgDmpYlOtF1-5" value="EE&lt;div&gt;DC&lt;/div&gt;" style="whiteSpace=wrap;html=1;" parent="1" vertex="1">
          <mxGeometry x="360" y="140" width="60" height="90" as="geometry" />
        </mxCell>
        <mxCell id="7MOs0mlEQtgDmpYlOtF1-8" value="OE" style="rounded=0;whiteSpace=wrap;html=1;" parent="1" vertex="1">
          <mxGeometry x="370" y="250" width="40" height="50" as="geometry" />
        </mxCell>
        <mxCell id="7MOs0mlEQtgDmpYlOtF1-10" value="" style="endArrow=none;html=1;rounded=0;exitX=0.5;exitY=1;exitDx=0;exitDy=0;exitPerimeter=0;entryX=1;entryY=0.889;entryDx=0;entryDy=0;entryPerimeter=0;" parent="1" source="7MOs0mlEQtgDmpYlOtF1-4" target="7MOs0mlEQtgDmpYlOtF1-5" edge="1">
          <mxGeometry width="50" height="50" relative="1" as="geometry">
            <mxPoint x="451" y="230" as="sourcePoint" />
            <mxPoint x="431" y="220" as="targetPoint" />
            <Array as="points">
              <mxPoint x="461" y="220" />
            </Array>
          </mxGeometry>
        </mxCell>
        <mxCell id="7MOs0mlEQtgDmpYlOtF1-11" value="" style="endArrow=none;html=1;rounded=0;entryX=0.5;entryY=0;entryDx=0;entryDy=0;entryPerimeter=0;exitX=1;exitY=0.111;exitDx=0;exitDy=0;exitPerimeter=0;" parent="1" source="7MOs0mlEQtgDmpYlOtF1-5" target="7MOs0mlEQtgDmpYlOtF1-4" edge="1">
          <mxGeometry width="50" height="50" relative="1" as="geometry">
            <mxPoint x="431" y="150" as="sourcePoint" />
            <mxPoint x="491" y="170" as="targetPoint" />
            <Array as="points">
              <mxPoint x="461" y="150" />
            </Array>
          </mxGeometry>
        </mxCell>
        <mxCell id="7MOs0mlEQtgDmpYlOtF1-12" value="" style="endArrow=none;html=1;rounded=0;entryX=0.5;entryY=1;entryDx=0;entryDy=0;" parent="1" source="7MOs0mlEQtgDmpYlOtF1-8" target="7MOs0mlEQtgDmpYlOtF1-5" edge="1">
          <mxGeometry width="50" height="50" relative="1" as="geometry">
            <mxPoint x="401" y="310" as="sourcePoint" />
            <mxPoint x="391" y="240" as="targetPoint" />
          </mxGeometry>
        </mxCell>
        <mxCell id="7MOs0mlEQtgDmpYlOtF1-14" value="" style="endArrow=none;html=1;rounded=0;" parent="1" edge="1">
          <mxGeometry width="50" height="50" relative="1" as="geometry">
            <mxPoint x="280" y="170" as="sourcePoint" />
            <mxPoint x="360" y="170" as="targetPoint" />
          </mxGeometry>
        </mxCell>
        <mxCell id="7MOs0mlEQtgDmpYlOtF1-15" value="" style="endArrow=none;html=1;rounded=0;entryX=0;entryY=0.667;entryDx=0;entryDy=0;entryPerimeter=0;exitX=1;exitY=0.239;exitDx=0;exitDy=0;exitPerimeter=0;" parent="1" target="7MOs0mlEQtgDmpYlOtF1-5" edge="1">
          <mxGeometry width="50" height="50" relative="1" as="geometry">
            <mxPoint x="280" y="199.98900000000003" as="sourcePoint" />
            <mxPoint x="350" y="200" as="targetPoint" />
          </mxGeometry>
        </mxCell>
        <mxCell id="7MOs0mlEQtgDmpYlOtF1-16" value="PWM" style="text;html=1;align=center;verticalAlign=middle;resizable=0;points=[];autosize=1;strokeColor=none;fillColor=none;" parent="1" vertex="1">
          <mxGeometry x="295" y="147" width="50" height="30" as="geometry" />
        </mxCell>
        <mxCell id="7MOs0mlEQtgDmpYlOtF1-17" value="DIR" style="text;html=1;align=center;verticalAlign=middle;resizable=0;points=[];autosize=1;strokeColor=none;fillColor=none;" parent="1" vertex="1">
          <mxGeometry x="300" y="195" width="40" height="30" as="geometry" />
        </mxCell>
        <mxCell id="7MOs0mlEQtgDmpYlOtF1-18" value="P&lt;span style=&quot;font-size: 10px;&quot;&gt;&lt;sub&gt;0,3&lt;/sub&gt;&lt;/span&gt;" style="text;html=1;align=center;verticalAlign=middle;resizable=1;points=[];autosize=1;strokeColor=none;fillColor=none;" parent="1" vertex="1">
          <mxGeometry x="245" y="150.5" width="40" height="30" as="geometry" />
        </mxCell>
        <mxCell id="7MOs0mlEQtgDmpYlOtF1-19" value="" style="endArrow=none;html=1;rounded=0;exitX=1.04;exitY=0.484;exitDx=0;exitDy=0;exitPerimeter=0;entryX=0;entryY=0.2;entryDx=0;entryDy=0;entryPerimeter=0;" parent="1" target="7MOs0mlEQtgDmpYlOtF1-8" edge="1">
          <mxGeometry width="50" height="50" relative="1" as="geometry">
            <mxPoint x="280.00000000000006" y="260.004" as="sourcePoint" />
            <mxPoint x="360" y="260" as="targetPoint" />
          </mxGeometry>
        </mxCell>
        <mxCell id="7MOs0mlEQtgDmpYlOtF1-20" value="" style="endArrow=none;html=1;rounded=0;entryX=0;entryY=0.6;entryDx=0;entryDy=0;entryPerimeter=0;exitX=1;exitY=0.558;exitDx=0;exitDy=0;exitPerimeter=0;" parent="1" edge="1">
          <mxGeometry width="50" height="50" relative="1" as="geometry">
            <mxPoint x="280" y="290.05800000000005" as="sourcePoint" />
            <mxPoint x="370" y="290" as="targetPoint" />
          </mxGeometry>
        </mxCell>
        <mxCell id="7MOs0mlEQtgDmpYlOtF1-21" value="POS" style="text;html=1;align=center;verticalAlign=middle;resizable=0;points=[];autosize=1;strokeColor=none;fillColor=none;" parent="1" vertex="1">
          <mxGeometry x="295" y="285" width="50" height="30" as="geometry" />
        </mxCell>
        <mxCell id="7MOs0mlEQtgDmpYlOtF1-22" value="SP" style="text;html=1;align=center;verticalAlign=middle;resizable=0;points=[];autosize=1;strokeColor=none;fillColor=none;" parent="1" vertex="1">
          <mxGeometry x="300" y="237" width="40" height="30" as="geometry" />
        </mxCell>
        <mxCell id="7MOs0mlEQtgDmpYlOtF1-23" value="P&lt;span style=&quot;font-size: 10px;&quot;&gt;&lt;sub&gt;0,5&lt;/sub&gt;&lt;/span&gt;" style="text;html=1;align=center;verticalAlign=middle;resizable=1;points=[];autosize=1;strokeColor=none;fillColor=none;" parent="1" vertex="1">
          <mxGeometry x="245" y="240" width="40" height="30" as="geometry" />
        </mxCell>
        <mxCell id="7MOs0mlEQtgDmpYlOtF1-24" value="P&lt;span style=&quot;font-size: 10px;&quot;&gt;&lt;sub&gt;0,6&lt;/sub&gt;&lt;/span&gt;" style="text;html=1;align=center;verticalAlign=middle;resizable=1;points=[];autosize=1;strokeColor=none;fillColor=none;" parent="1" vertex="1">
          <mxGeometry x="245" y="270" width="40" height="30" as="geometry" />
        </mxCell>
        <mxCell id="7MOs0mlEQtgDmpYlOtF1-26" value="TS" style="rounded=0;whiteSpace=wrap;html=1;" parent="1" vertex="1">
          <mxGeometry x="370" y="80" width="40" height="40" as="geometry" />
        </mxCell>
        <mxCell id="7MOs0mlEQtgDmpYlOtF1-27" value="" style="endArrow=none;html=1;rounded=0;exitX=1;exitY=0.125;exitDx=0;exitDy=0;exitPerimeter=0;entryX=0;entryY=0.5;entryDx=0;entryDy=0;" parent="1" source="7MOs0mlEQtgDmpYlOtF1-1" target="7MOs0mlEQtgDmpYlOtF1-26" edge="1">
          <mxGeometry width="50" height="50" relative="1" as="geometry">
            <mxPoint x="300" y="100" as="sourcePoint" />
            <mxPoint x="360" y="100" as="targetPoint" />
          </mxGeometry>
        </mxCell>
        <mxCell id="7MOs0mlEQtgDmpYlOtF1-28" value="" style="endArrow=none;html=1;rounded=0;entryX=0.5;entryY=1;entryDx=0;entryDy=0;exitX=0.5;exitY=0;exitDx=0;exitDy=0;" parent="1" source="7MOs0mlEQtgDmpYlOtF1-5" target="7MOs0mlEQtgDmpYlOtF1-26" edge="1">
          <mxGeometry width="50" height="50" relative="1" as="geometry">
            <mxPoint x="300" y="150" as="sourcePoint" />
            <mxPoint x="350" y="100" as="targetPoint" />
          </mxGeometry>
        </mxCell>
        <mxCell id="7MOs0mlEQtgDmpYlOtF1-29" value="TRQ" style="text;html=1;align=center;verticalAlign=middle;resizable=0;points=[];autosize=1;strokeColor=none;fillColor=none;" parent="1" vertex="1">
          <mxGeometry x="295" y="77" width="50" height="30" as="geometry" />
        </mxCell>
      </root>
    </mxGraphModel>
  </diagram>
</mxfile>
